/* XPM */
static char * tt_xpm[] = {
"40 25 3 1",
" 	c None",
".	c #FFFFFF",
"+	c #000000",
"........................................",
".+++++++++++++++++++++++++++++++++++++..",
"+.....................................++",
"+.....................................++",
"+.....++++...++++...++++...++++.......++",
"+.....++++...++++...++++...++++.......++",
"+.....++++...++++...++++...++++.......++",
"+.....................................++",
"+.....................................++",
"+.....++++...++++...++++...++++.......++",
"+.....++++...++++...++++...++++.......++",
"+.....++++...++++...++++...++++.......++",
"+.....................................++",
"+.....................................++",
"+.....++++...++++...++++...++++.......++",
"+.....++++...++++...++++...++++.......++",
"+.....++++...++++...++++...++++.......++",
"+.....................................++",
"+.....................................++",
"+.....................................++",
"+......+++++++++++++++++++++++........++",
"+......+++++++++++++++++++++++........++",
"+......+++++++++++++++++++++++........++",
"+.....................................++",
".+++++++++++++++++++++++++++++++++++++.."};
